<svg version="1.1" xmlns="http://www.w3.org/2000/svg" viewBox="0 0 795.4566818388747 332.09236685303307" width="795.4566818388747" height="332.09236685303307">
  <!-- svg-source:excalidraw -->
  
  <defs>
    <style class="style-fonts">
      @font-face {
        font-family: "Virgil";
        src: url("https://excalidraw.com/Virgil.woff2");
      }
      @font-face {
        font-family: "Cascadia";
        src: url("https://excalidraw.com/Cascadia.woff2");
      }
      @font-face {
        font-family: "Assistant";
        src: url("https://excalidraw.com/Assistant-Regular.woff2");
      }
    </style>
    
  </defs>
  <rect x="0" y="0" width="795.4566818388747" height="332.09236685303307" fill="#ffffff"></rect><g stroke-linecap="round"><g transform="translate(148.60005074408667 100.11015701066577) rotate(0 60.30281883412391 13.84234512261689)"><path d="M-0.49 -1 C19.85 3.37, 101.33 22.07, 121.62 26.87 M1.45 1.09 C21.76 5.53, 101.31 23.3, 121.2 27.98" stroke="#1e1e1e" stroke-width="1" fill="none"></path></g><g transform="translate(148.60005074408667 100.11015701066577) rotate(0 60.30281883412391 13.84234512261689)"><path d="M96.39 31.09 C101.24 32.06, 108.08 30.58, 121.2 27.98 M96.39 31.09 C104.76 30.31, 111.07 29.95, 121.2 27.98" stroke="#1e1e1e" stroke-width="1" fill="none"></path></g><g transform="translate(148.60005074408667 100.11015701066577) rotate(0 60.30281883412391 13.84234512261689)"><path d="M100.2 14.42 C104.14 19.76, 109.97 22.67, 121.2 27.98 M100.2 14.42 C107.39 18.76, 112.52 23.54, 121.2 27.98" stroke="#1e1e1e" stroke-width="1" fill="none"></path></g></g><mask></mask><g stroke-linecap="round" transform="translate(12.888838585883548 41.855660904319905) rotate(0 59.5 66)"><path d="M29.75 0 C54.01 0.63, 74.98 -0.39, 89.25 0 M29.75 0 C47.11 -0.18, 63.16 0.59, 89.25 0 M89.25 0 C111.03 -1.89, 120.92 10.02, 119 29.75 M89.25 0 C110.39 -0.74, 120.45 8.63, 119 29.75 M119 29.75 C119.57 51.4, 118.1 73.14, 119 102.25 M119 29.75 C119.05 54.31, 119.06 78.92, 119 102.25 M119 102.25 C118.94 122.68, 110 130.69, 89.25 132 M119 102.25 C121.16 123.29, 108.5 133.1, 89.25 132 M89.25 132 C74 129.61, 54.89 130.42, 29.75 132 M89.25 132 C67 132.3, 43.84 132.13, 29.75 132 M29.75 132 C8.87 132.79, -0.2 123.74, 0 102.25 M29.75 132 C8.15 133.32, 0.31 122.17, 0 102.25 M0 102.25 C-1.93 83.71, -0.82 67.08, 0 29.75 M0 102.25 C-0.7 75.43, -0.13 50.52, 0 29.75 M0 29.75 C0.04 9.96, 8.15 1.22, 29.75 0 M0 29.75 C1.98 8.92, 10.1 1.71, 29.75 0" stroke="#1e1e1e" stroke-width="1" fill="none"></path></g><g transform="translate(54.50884896186011 95.3556609043199) rotate(0 17.879989624023438 12.5)"><text x="17.879989624023438" y="17.52" font-family="Virgil, Segoe UI Emoji" font-size="20px" fill="#1e1e1e" text-anchor="middle" style="white-space: pre;" direction="ltr" dominant-baseline="alphabetic">CLI</text></g><g stroke-linecap="round" transform="translate(10 193.09236685303307) rotate(0 61.5 64.5)"><path d="M30.75 0 C42.89 -0.37, 58.26 0.01, 92.25 0 M30.75 0 C52.64 0.83, 74.76 0.2, 92.25 0 M92.25 0 C111.21 -0.67, 122.27 9.09, 123 30.75 M92.25 0 C111.07 -1, 125.14 11.65, 123 30.75 M123 30.75 C123.32 56.62, 122.03 80.73, 123 98.25 M123 30.75 C123.21 55.54, 123.52 79.76, 123 98.25 M123 98.25 C123.03 118.77, 112.88 128.46, 92.25 129 M123 98.25 C123.39 118.49, 113.66 130.92, 92.25 129 M92.25 129 C76.83 127.4, 57.26 127.95, 30.75 129 M92.25 129 C79.53 127.96, 65.88 128.02, 30.75 129 M30.75 129 C10.82 130.14, -1.45 118.88, 0 98.25 M30.75 129 C10.89 130.42, 1.05 118.92, 0 98.25 M0 98.25 C1.06 76.03, -0.43 50.93, 0 30.75 M0 98.25 C0.2 81.05, 0.81 64.52, 0 30.75 M0 30.75 C1.29 10.35, 11.66 -0.95, 30.75 0 M0 30.75 C-1.98 11.33, 8.12 2.05, 30.75 0" stroke="#1e1e1e" stroke-width="1" fill="none"></path></g><g transform="translate(29.870025634765625 245.09236685303307) rotate(0 41.629974365234375 12.5)"><text x="41.629974365234375" y="17.52" font-family="Virgil, Segoe UI Emoji" font-size="20px" fill="#1e1e1e" text-anchor="middle" style="white-space: pre;" direction="ltr" dominant-baseline="alphabetic">Web API</text></g><g stroke-linecap="round"><g transform="translate(148.988525390625 255.6246228221903) rotate(0 57.55785770182467 -20.9695619104678)"><path d="M-0.87 0.08 C18.32 -6.9, 96.02 -34.21, 115.45 -41.2 M0.88 -0.93 C19.9 -8.31, 95.62 -36.34, 114.67 -42.93" stroke="#1e1e1e" stroke-width="1" fill="none"></path></g><g transform="translate(148.988525390625 255.6246228221903) rotate(0 57.55785770182467 -20.9695619104678)"><path d="M95.47 -26.93 C101.82 -31.5, 109.24 -36.39, 114.67 -42.93 M95.47 -26.93 C100.37 -31.45, 107.84 -37.11, 114.67 -42.93" stroke="#1e1e1e" stroke-width="1" fill="none"></path></g><g transform="translate(148.988525390625 255.6246228221903) rotate(0 57.55785770182467 -20.9695619104678)"><path d="M89.67 -43.02 C98.02 -42.26, 107.34 -41.86, 114.67 -42.93 M89.67 -43.02 C96.44 -42.54, 105.69 -43.26, 114.67 -42.93" stroke="#1e1e1e" stroke-width="1" fill="none"></path></g></g><mask></mask><g stroke-linecap="round" transform="translate(279.8600937041091 79.27920532226562) rotate(0 90 97.5)"><path d="M32 0 C56 -0.92, 81 1.76, 148 0 M32 0 C63.71 -0.44, 93.67 -0.48, 148 0 M148 0 C168.26 -1.45, 178.35 10.82, 180 32 M148 0 C169.17 1.45, 178.45 12.94, 180 32 M180 32 C180.86 68.49, 180.99 106.63, 180 163 M180 32 C179.25 59.23, 180.57 85.74, 180 163 M180 163 C178.33 185.46, 169.04 195.36, 148 195 M180 163 C181.24 185.18, 168.49 196.18, 148 195 M148 195 C108.15 193.84, 70.61 194.09, 32 195 M148 195 C110.05 193.73, 70.8 194.35, 32 195 M32 195 C10.58 195.78, -0.61 183.39, 0 163 M32 195 C12.07 194.73, 1.36 184.34, 0 163 M0 163 C1.16 134.2, -0.18 101.9, 0 32 M0 163 C-0.46 111.59, 1.05 61.57, 0 32 M0 32 C-0.97 12.16, 10.63 1.02, 32 0 M0 32 C-1.69 8.92, 11.51 -1.19, 32 0" stroke="#1e1e1e" stroke-width="1" fill="none"></path></g><g transform="translate(336.6401230009841 164.27920532226562) rotate(0 33.219970703125 12.5)"><text x="33.219970703125" y="17.52" font-family="Virgil, Segoe UI Emoji" font-size="20px" fill="#1e1e1e" text-anchor="middle" style="white-space: pre;" direction="ltr" dominant-baseline="alphabetic">Library</text></g><g stroke-linecap="round"><g transform="translate(464.7043319853591 111.94408542203178) rotate(0 64.54084777832031 -29.664036424394794)"><path d="M-0.55 -0.97 C20.69 -10.81, 106.55 -49.06, 128.02 -58.73 M1.36 1.13 C22.91 -9.09, 108.6 -50.76, 130.17 -60.54" stroke="#1e1e1e" stroke-width="1" fill="none"></path></g><g transform="translate(464.7043319853591 111.94408542203178) rotate(0 64.54084777832031 -29.664036424394794)"><path d="M112.58 -42.78 C117 -50.62, 125.7 -56.33, 130.17 -60.54 M112.58 -42.78 C117.7 -47.71, 124.68 -54.35, 130.17 -60.54" stroke="#1e1e1e" stroke-width="1" fill="none"></path></g><g transform="translate(464.7043319853591 111.94408542203178) rotate(0 64.54084777832031 -29.664036424394794)"><path d="M105.28 -58.25 C112.27 -60.7, 123.49 -61.06, 130.17 -60.54 M105.28 -58.25 C112.88 -58.14, 122.24 -59.75, 130.17 -60.54" stroke="#1e1e1e" stroke-width="1" fill="none"></path></g></g><mask></mask><g stroke-linecap="round" transform="translate(596.2512375029372 10) rotate(0 92 43)"><path d="M21.5 0 C56.32 0.37, 95.9 -1.9, 162.5 0 M21.5 0 C50.67 1.07, 77.35 0.75, 162.5 0 M162.5 0 C177.58 -0.99, 182.86 8.22, 184 21.5 M162.5 0 C177.01 1.24, 182.69 5.24, 184 21.5 M184 21.5 C183.24 36.15, 185.37 53.28, 184 64.5 M184 21.5 C183.24 38.22, 183.81 54.49, 184 64.5 M184 64.5 C185.82 77.87, 175.15 85.72, 162.5 86 M184 64.5 C186 79.12, 177.79 85.59, 162.5 86 M162.5 86 C114.97 85.15, 69.44 85.38, 21.5 86 M162.5 86 C113.89 84.55, 67.01 84.59, 21.5 86 M21.5 86 C6.86 86.76, -0.85 80.58, 0 64.5 M21.5 86 C6.45 86.51, 1.06 78.08, 0 64.5 M0 64.5 C-1.49 54.75, -0.04 45.31, 0 21.5 M0 64.5 C1.26 50.27, 0.1 36.01, 0 21.5 M0 21.5 C0.01 6.57, 7.29 -0.73, 21.5 0 M0 21.5 C1.58 8.66, 6.51 1.3, 21.5 0" stroke="#1e1e1e" stroke-width="1" fill="none"></path></g><g transform="translate(615.5613113554763 40.5) rotate(0 72.68992614746094 12.5)"><text x="72.68992614746094" y="17.52" font-family="Virgil, Segoe UI Emoji" font-size="20px" fill="#1e1e1e" text-anchor="middle" style="white-space: pre;" direction="ltr" dominant-baseline="alphabetic">Source Cluster</text></g><g stroke-linecap="round" transform="translate(601.5434738310622 120.1597900390625) rotate(0 89.5 43)"><path d="M21.5 0 C67.39 -0.71, 109.08 -1.42, 157.5 0 M21.5 0 C61.99 0.6, 103.85 -0.37, 157.5 0 M157.5 0 C172.96 0.04, 179.17 8.01, 179 21.5 M157.5 0 C172.74 -0.97, 178.44 9.25, 179 21.5 M179 21.5 C179.09 29.33, 180.01 39.35, 179 64.5 M179 21.5 C178.7 32.54, 179.79 42.32, 179 64.5 M179 64.5 C177.28 78.29, 172.05 86.21, 157.5 86 M179 64.5 C177.87 80.18, 173.27 87.57, 157.5 86 M157.5 86 C103.61 86.8, 51.72 84.11, 21.5 86 M157.5 86 C125.18 86.38, 90.48 87, 21.5 86 M21.5 86 C8.96 87.46, -0.25 80.81, 0 64.5 M21.5 86 C5.6 86.05, -1.47 76.77, 0 64.5 M0 64.5 C-0.98 47.8, -0.45 29.81, 0 21.5 M0 64.5 C0.86 47.89, -0.87 29.86, 0 21.5 M0 21.5 C-1.62 7.35, 5.84 1.58, 21.5 0 M0 21.5 C-0.84 5.98, 6.99 -0.37, 21.5 0" stroke="#1e1e1e" stroke-width="1" fill="none"></path></g><g transform="translate(615.3035446318435 150.6597900390625) rotate(0 75.73992919921875 12.5)"><text x="75.73992919921875" y="17.52" font-family="Virgil, Segoe UI Emoji" font-size="20px" fill="#1e1e1e" text-anchor="middle" style="white-space: pre;" direction="ltr" dominant-baseline="alphabetic">Target Cluster</text></g><g stroke-linecap="round" transform="translate(601.4566818388747 231.0677032470703) rotate(0 92 41)"><path d="M20.5 0 C75.35 2.68, 132.92 0.64, 163.5 0 M20.5 0 C76.87 -0.93, 135.39 -0.96, 163.5 0 M163.5 0 C177.24 -1.37, 183.94 5.99, 184 20.5 M163.5 0 C175.55 2.2, 183.41 6.27, 184 20.5 M184 20.5 C182.94 34.23, 184.35 49.89, 184 61.5 M184 20.5 C183.77 35.87, 184.15 51.66, 184 61.5 M184 61.5 C185.44 77.08, 176.35 83, 163.5 82 M184 61.5 C182.54 75.39, 175.16 80.4, 163.5 82 M163.5 82 C118.01 81.63, 71.94 81.93, 20.5 82 M163.5 82 C109.52 81.3, 55.51 81.7, 20.5 82 M20.5 82 C7.29 82.88, -1.96 73.66, 0 61.5 M20.5 82 C5.41 82.2, 1.41 76.15, 0 61.5 M0 61.5 C1.06 48.98, -1.32 39.18, 0 20.5 M0 61.5 C-0.48 48, -0.19 33.63, 0 20.5 M0 20.5 C0.88 5.15, 7.45 -0.48, 20.5 0 M0 20.5 C-0.31 6, 7.86 -0.4, 20.5 0" stroke="#1e1e1e" stroke-width="1" fill="none"></path></g><g transform="translate(654.2667251738357 259.5677032470703) rotate(0 39.18995666503906 12.5)"><text x="39.18995666503906" y="17.52" font-family="Virgil, Segoe UI Emoji" font-size="20px" fill="#1e1e1e" text-anchor="middle" style="white-space: pre;" direction="ltr" dominant-baseline="alphabetic">Services</text></g><g stroke-linecap="round"><g transform="translate(469.7848983916091 166.03372281510048) rotate(0 59.099136352539055 0.6703965288841118)"><path d="M-1.1 -0.46 C18.63 -0.37, 98.21 -0.16, 117.93 0.2 M0.53 -1.75 C20.12 -1.52, 97 0.92, 116.84 1.13" stroke="#1e1e1e" stroke-width="1" fill="none"></path></g><g transform="translate(469.7848983916091 166.03372281510048) rotate(0 59.099136352539055 0.6703965288841118)"><path d="M93.16 9.16 C98.61 6.82, 103.67 3.47, 116.84 1.13 M93.16 9.16 C101.25 6.57, 109.1 3.42, 116.84 1.13" stroke="#1e1e1e" stroke-width="1" fill="none"></path></g><g transform="translate(469.7848983916091 166.03372281510048) rotate(0 59.099136352539055 0.6703965288841118)"><path d="M93.54 -7.94 C98.84 -5.81, 103.8 -4.68, 116.84 1.13 M93.54 -7.94 C101.62 -4.9, 109.34 -2.43, 116.84 1.13" stroke="#1e1e1e" stroke-width="1" fill="none"></path></g></g><mask></mask><g stroke-linecap="round"><g transform="translate(476.0397812041091 233.67555053582453) rotate(0 56.870681762695305 18.310304439975393)"><path d="M-0.61 -0.77 C18.48 5.44, 95.87 30.99, 114.77 37.06 M1.27 1.44 C20.27 7.3, 95.38 29.33, 114.36 35.17" stroke="#1e1e1e" stroke-width="1" fill="none"></path></g><g transform="translate(476.0397812041091 233.67555053582453) rotate(0 56.870681762695305 18.310304439975393)"><path d="M89.4 36.61 C96.06 37.99, 106.03 34.16, 114.36 35.17 M89.4 36.61 C94.78 35.64, 99.82 36.54, 114.36 35.17" stroke="#1e1e1e" stroke-width="1" fill="none"></path></g><g transform="translate(476.0397812041091 233.67555053582453) rotate(0 56.870681762695305 18.310304439975393)"><path d="M94.31 20.23 C99.38 26.8, 107.78 28.19, 114.36 35.17 M94.31 20.23 C98.71 22.87, 102.67 27.39, 114.36 35.17" stroke="#1e1e1e" stroke-width="1" fill="none"></path></g></g><mask></mask></svg>